<svg width="25" height="25" viewBox="0 0 25 25" fill="none" xmlns="http://www.w3.org/2000/svg">
<circle cx="12.5" cy="12.5" r="12.5" fill="#B7E0E7"/>
<path d="M14.3345 9.84727V16.4073C14.3345 16.5188 14.3636 16.6109 14.4218 16.6836C14.4848 16.7515 14.5697 16.7952 14.6764 16.8145L15.4618 16.96V18H10.5818V16.96L11.3673 16.8145C11.4739 16.7952 11.5564 16.7515 11.6145 16.6836C11.6776 16.6109 11.7091 16.5188 11.7091 16.4073V11.6145C11.7091 11.5079 11.6824 11.4158 11.6291 11.3382C11.5758 11.2606 11.4958 11.2121 11.3891 11.1927L10.5018 11.0109V9.94182C10.7636 9.87394 11.0424 9.81333 11.3382 9.76C11.6388 9.70667 11.9394 9.66303 12.24 9.62909C12.5455 9.59515 12.8461 9.57091 13.1418 9.55636C13.4424 9.53697 13.7236 9.52727 13.9855 9.52727L14.3345 9.84727ZM14.32 7.23636C14.32 7.63879 14.1915 7.96121 13.9345 8.20364C13.6776 8.44121 13.3333 8.56 12.9018 8.56C12.4655 8.56 12.1164 8.44121 11.8545 8.20364C11.5976 7.96121 11.4691 7.63879 11.4691 7.23636C11.4691 6.84364 11.5976 6.53091 11.8545 6.29818C12.1164 6.06061 12.4655 5.94182 12.9018 5.94182C13.3333 5.94182 13.6776 6.06061 13.9345 6.29818C14.1915 6.53091 14.32 6.84364 14.32 7.23636Z" fill="#0091AE"/>
</svg>
