<svg width="14" height="8" viewBox="0 0 14 8" fill="none" xmlns="http://www.w3.org/2000/svg">
<path d="M8.631 8H8.484C8.18773 7.97899 7.90854 7.89103 7.68699 7.7489C7.46544 7.60677 7.31307 7.41786 7.252 7.20962L5.376 0.996679L3.444 4.1982C3.38935 4.28768 3.29926 4.36378 3.18482 4.41711C3.07039 4.47044 2.93662 4.49868 2.8 4.49834H0.7C0.514348 4.49834 0.336301 4.44564 0.205025 4.35182C0.0737498 4.25801 0 4.13077 0 3.9981C0 3.86543 0.0737498 3.73819 0.205025 3.64438C0.336301 3.55057 0.514348 3.49787 0.7 3.49787H2.338L4.095 0.601492C4.21327 0.407131 4.41487 0.244633 4.67071 0.137427C4.92655 0.0302216 5.22342 -0.0161521 5.51853 0.00499222C5.81363 0.0261365 6.09171 0.113706 6.31267 0.255076C6.53364 0.396445 6.68608 0.58431 6.748 0.791582L8.624 6.99953L10.556 3.80801C10.6085 3.71666 10.6977 3.63846 10.8123 3.58327C10.9269 3.52807 11.0618 3.49836 11.2 3.49787H13.3C13.4857 3.49787 13.6637 3.55057 13.795 3.64438C13.9263 3.73819 14 3.86543 14 3.9981C14 4.13077 13.9263 4.25801 13.795 4.35182C13.6637 4.44564 13.4857 4.49834 13.3 4.49834H11.662L9.905 7.39471C9.79771 7.57305 9.62014 7.72524 9.39392 7.83271C9.16771 7.94019 8.90263 7.99831 8.631 8Z" fill="#FF6E50"/>
</svg>
